<svg width="18" height="11" viewBox="0 0 18 11" fill="none" xmlns="http://www.w3.org/2000/svg">
<path d="M17.7071 2.20711C18.0976 1.81658 18.0976 1.18342 17.7071 0.792894C17.3166 0.40237 16.6834 0.40237 16.2929 0.792894L17.7071 2.20711ZM9 9.5L8.29289 10.2071C8.68342 10.5976 9.31658 10.5976 9.70711 10.2071L9 9.5ZM1.70711 0.792893C1.31658 0.402369 0.683417 0.402369 0.292893 0.792893C-0.0976307 1.18342 -0.0976308 1.81658 0.292893 2.20711L1.70711 0.792893ZM16.2929 0.792894L8.29289 8.79289L9.70711 10.2071L17.7071 2.20711L16.2929 0.792894ZM9.70711 8.79289L1.70711 0.792893L0.292893 2.20711L8.29289 10.2071L9.70711 8.79289Z" fill="#222837"/>
</svg>
