<svg width="18" height="18" viewBox="0 0 18 18" fill="none" xmlns="http://www.w3.org/2000/svg">
<path d="M8.17026 11.4834C8.96936 11.6964 10.7492 12.1707 11.028 11.0424C11.3181 9.8947 9.61721 9.51052 8.78146 9.32175C8.68539 9.30005 8.60075 9.28093 8.53188 9.26354L7.99047 11.4362C8.04243 11.4493 8.10286 11.4654 8.17026 11.4834Z" fill="url(#paint0_linear_450_16845)"/>
<path d="M8.94275 8.30694C9.61092 8.48744 11.0791 8.88403 11.3374 7.85728C11.5958 6.81706 10.1811 6.50038 9.48548 6.34465C9.40527 6.3267 9.33462 6.31088 9.2772 6.29634L8.78501 8.2651C8.83033 8.27657 8.88339 8.2909 8.94275 8.30694Z" fill="url(#paint1_linear_450_16845)"/>
<path fill-rule="evenodd" clip-rule="evenodd" d="M6.82369 17.7304C11.6408 18.9329 16.5283 16.0005 17.7308 11.1765C18.9333 6.35238 15.9938 1.46509 11.1767 0.26964C6.35252 -0.932916 1.47212 1.99954 0.269639 6.82354C-0.932917 11.6406 1.99954 16.5279 6.82369 17.7304ZM11.3022 5.60728C12.5538 6.03619 13.4608 6.68306 13.285 7.87838C13.1584 8.75025 12.6733 9.17916 12.0194 9.32682C12.9053 9.79088 13.3553 10.501 12.9264 11.7245C12.3991 13.2503 11.1334 13.3768 9.44594 13.0604L9.03813 14.6987L8.05376 14.4526L8.45454 12.8354C8.20141 12.7721 7.93422 12.7018 7.66704 12.6315L7.25922 14.2557L6.27485 14.0096L6.68266 12.3714C6.54967 12.3351 6.41667 12.3011 6.28235 12.2668C6.18233 12.2413 6.08157 12.2155 5.97953 12.1885L4.69281 11.8651L5.185 10.7331C5.185 10.7331 5.90922 10.9229 5.90219 10.9088C6.17641 10.9792 6.30297 10.7964 6.35219 10.6768L6.99907 8.08932C7.03422 8.10338 7.06937 8.11041 7.10453 8.11744C7.06746 8.0989 7.03582 8.09123 7.00961 8.08487C7.00599 8.08399 7.00248 8.08314 6.99907 8.08228L7.46313 6.23306C7.47719 6.02213 7.40688 5.75494 7.0061 5.6565C7.02016 5.64947 6.28891 5.48072 6.28891 5.48072L6.54907 4.42603L7.91313 4.76353V4.77056C8.11704 4.81978 8.32798 4.869 8.54594 4.91822L8.94673 3.30103L9.9311 3.54712L9.53735 5.13619C9.80454 5.19244 10.0717 5.25572 10.3319 5.319L10.7256 3.73697L11.71 3.98306L11.3022 5.60728Z" fill="url(#paint2_linear_450_16845)"/>
<defs>
<linearGradient id="paint0_linear_450_16845" x1="8.99514" y1="-0.00432" x2="8.99514" y2="17.9982" gradientUnits="userSpaceOnUse">
<stop stop-color="#F9AA4B"/>
<stop offset="1" stop-color="#F7931A"/>
</linearGradient>
<linearGradient id="paint1_linear_450_16845" x1="8.99514" y1="-0.00432" x2="8.99514" y2="17.9982" gradientUnits="userSpaceOnUse">
<stop stop-color="#F9AA4B"/>
<stop offset="1" stop-color="#F7931A"/>
</linearGradient>
<linearGradient id="paint2_linear_450_16845" x1="8.99514" y1="-0.00432" x2="8.99514" y2="17.9982" gradientUnits="userSpaceOnUse">
<stop stop-color="#F9AA4B"/>
<stop offset="1" stop-color="#F7931A"/>
</linearGradient>
</defs>
</svg>
