<svg width="30" height="30" viewBox="0 0 30 30" fill="none" xmlns="http://www.w3.org/2000/svg">
<path fill-rule="evenodd" clip-rule="evenodd" d="M6 9C6 8.44772 6.44772 8 7 8H23C23.5523 8 24 8.44772 24 9C24 9.55228 23.5523 10 23 10H7C6.44772 10 6 9.55228 6 9ZM6 15C6 14.4477 6.44772 14 7 14H23C23.5523 14 24 14.4477 24 15C24 15.5523 23.5523 16 23 16H7C6.44772 16 6 15.5523 6 15ZM7 20C6.44772 20 6 20.4477 6 21C6 21.5523 6.44772 22 7 22H23C23.5523 22 24 21.5523 24 21C24 20.4477 23.5523 20 23 20H7Z" fill="#F2F4F7"/>
</svg>
