<svg width="20" height="20" viewBox="0 0 20 20" fill="none" xmlns="http://www.w3.org/2000/svg">
<path d="M17.0718 3.99029C17.3647 3.6974 17.3647 3.22252 17.0718 2.92963C16.7789 2.63674 16.304 2.63674 16.0111 2.92963L10.0007 8.94004L3.99029 2.92963C3.6974 2.63674 3.22252 2.63674 2.92963 2.92963C2.63674 3.22252 2.63674 3.6974 2.92963 3.99029L8.94004 10.0007L2.92963 16.0111C2.63674 16.304 2.63674 16.7789 2.92963 17.0718C3.22252 17.3647 3.6974 17.3647 3.99029 17.0718L10.0007 11.0614L16.0111 17.0718C16.304 17.3647 16.7789 17.3647 17.0718 17.0718C17.3647 16.7789 17.3647 16.304 17.0718 16.0111L11.0614 10.0007L17.0718 3.99029Z" fill="#B2B8CC"/>
</svg>
