<svg width="24" height="24" viewBox="0 0 24 24" fill="none" xmlns="http://www.w3.org/2000/svg">
<path fill-rule="evenodd" clip-rule="evenodd" d="M4 6.25C3.58579 6.25 3.25 6.58579 3.25 7V21C3.25 21.4142 3.58579 21.75 4 21.75H16C16.4142 21.75 16.75 21.4142 16.75 21V7C16.75 6.58579 16.4142 6.25 16 6.25H4ZM4.75 20.25V7.75H15.25V20.25H4.75ZM7 12.25C7 11.8358 7.33579 11.5 7.75 11.5H12.25C12.6642 11.5 13 11.8358 13 12.25C13 12.6642 12.6642 13 12.25 13H7.75C7.33579 13 7 12.6642 7 12.25ZM7 15.75C7 15.3358 7.33579 15 7.75 15H12.25C12.6642 15 13 15.3358 13 15.75C13 16.1642 12.6642 16.5 12.25 16.5H7.75C7.33579 16.5 7 16.1642 7 15.75Z" fill="#222837"/>
<path fill-rule="evenodd" clip-rule="evenodd" d="M8 2.25C7.58579 2.25 7.25 2.58579 7.25 3V6.25H8.75V3.75H19.25V16.25H16.75V17.75H20C20.4142 17.75 20.75 17.4142 20.75 17V3C20.75 2.58579 20.4142 2.25 20 2.25H8Z" fill="#222837"/>
</svg>
