<svg width="11" height="12" viewBox="0 0 11 12" fill="none" xmlns="http://www.w3.org/2000/svg">
<path fill-rule="evenodd" clip-rule="evenodd" d="M6.28033 6.53033C6.57322 6.23744 6.57322 5.76256 6.28033 5.46967L1.78033 0.96967C1.48744 0.676777 1.01256 0.676777 0.719671 0.96967C0.426777 1.26256 0.426777 1.73744 0.71967 2.03033L4.68934 6L0.71967 9.96967C0.426777 10.2626 0.426777 10.7374 0.71967 11.0303C1.01256 11.3232 1.48744 11.3232 1.78033 11.0303L6.28033 6.53033ZM10.2804 6.53033C10.5733 6.23744 10.5733 5.76256 10.2804 5.46967L5.78037 0.96967C5.48748 0.676777 5.0126 0.676777 4.71971 0.96967C4.42682 1.26256 4.42682 1.73744 4.71971 2.03033L8.68938 6L4.71971 9.96967C4.42682 10.2626 4.42682 10.7374 4.71971 11.0303C5.0126 11.3232 5.48748 11.3232 5.78037 11.0303L10.2804 6.53033Z" fill="#222837"/>
</svg>
