<svg width="11" height="12" viewBox="0 0 11 12" fill="none" xmlns="http://www.w3.org/2000/svg">
<path fill-rule="evenodd" clip-rule="evenodd" d="M0.71967 5.46967C0.426777 5.76256 0.426777 6.23744 0.71967 6.53033L5.21967 11.0303C5.51256 11.3232 5.98744 11.3232 6.28033 11.0303C6.57322 10.7374 6.57322 10.2626 6.28033 9.96967L2.31066 6L6.28033 2.03033C6.57322 1.73744 6.57322 1.26256 6.28033 0.96967C5.98744 0.676777 5.51256 0.676777 5.21967 0.96967L0.71967 5.46967ZM4.71966 5.46967C4.42676 5.76256 4.42676 6.23744 4.71966 6.53033L9.21965 11.0303C9.51255 11.3232 9.98742 11.3232 10.2803 11.0303C10.5732 10.7374 10.5732 10.2626 10.2803 9.96967L6.31065 6L10.2803 2.03033C10.5732 1.73744 10.5732 1.26256 10.2803 0.96967C9.98742 0.676777 9.51255 0.676777 9.21966 0.96967L4.71966 5.46967Z" fill="#222837"/>
</svg>
