<svg width="26" height="26" viewBox="0 0 26 26" fill="none" xmlns="http://www.w3.org/2000/svg">
<path d="M12.9603 23.7H16.4862V16.875H19.4344L19.8797 13.325H16.4862V11.05C16.4862 10.025 16.7629 9.325 18.1829 9.325H20V6.1375C19.6871 6.1 18.6161 6 17.3646 6C14.7413 6 12.9603 7.6625 12.9603 10.7V13.325H10V16.875H12.9603V23.7Z" fill="#F2F4F7"/>
<path fill-rule="evenodd" clip-rule="evenodd" d="M23.7 19V7C23.7 4.40426 21.5957 2.3 19 2.3H7C4.40426 2.3 2.3 4.40426 2.3 7V19C2.3 21.5957 4.40426 23.7 7 23.7H19C21.5957 23.7 23.7 21.5957 23.7 19ZM26 7V19C26 22.866 22.866 26 19 26H7C3.13401 26 0 22.866 0 19V7C0 3.13401 3.13401 0 7 0H19C22.866 0 26 3.13401 26 7Z" fill="#F2F4F7"/>
</svg>
