<svg width="104" height="44" viewBox="0 0 104 44" fill="none" xmlns="http://www.w3.org/2000/svg">
<g filter="url(#filter0_dd_450_7121)">
<path d="M102.075 1.89493C101.489 1.3086 100.671 1 99.8381 1H85.584C84.1185 1 82.8381 2.04923 82.5605 3.49963L81.4189 9.36297C81.3418 9.795 81.6657 10.1962 82.1131 10.1962H84.1957C84.5967 10.1962 84.9361 9.91844 85.0133 9.51727L85.9851 4.54886H99.3753L92.5414 39.4511H79.1512L80.0922 34.637C80.1693 34.205 79.8454 33.8038 79.398 33.8038H77.3154C76.9144 33.8038 76.575 34.0816 76.4978 34.4827L75.5568 39.3277C75.3563 40.3461 75.6802 41.3799 76.4207 42.1205C77.0069 42.7068 77.8245 43.0154 78.6575 43.0154H92.9116C94.3771 43.0154 95.6576 41.9662 95.9352 40.5158L102.939 4.68773C103.139 3.66936 102.831 2.62013 102.075 1.89493Z" fill="#FDDA25"/>
</g>
<g filter="url(#filter1_di_450_7121)">
<path d="M12.8019 13.282C13.3418 13.282 13.6503 13.6832 13.4189 14.825C13.203 15.9668 12.7556 16.368 12.2002 16.368H8.76013L6.13762 29.9154C6.01421 30.5171 5.47428 30.9646 4.13218 30.9646C2.79007 30.9646 2.38898 30.4863 2.5124 29.9L5.1349 16.3526H1.69479C1.15486 16.3526 0.846335 15.9514 1.07773 14.8096C1.30913 13.6678 1.74107 13.2666 2.29643 13.2666H12.8019V13.282Z" fill="#F7F8FA"/>
<path d="M23.153 20.1639C23.693 20.1639 24.0015 20.5651 23.7701 21.7069C23.5541 22.8487 23.1068 23.2499 22.5514 23.2499H17.5224L16.6739 27.6628H22.4588C22.9988 27.6628 23.2765 28.064 23.0759 29.2058C22.8599 30.3476 22.4126 30.7488 21.8572 30.7488H13.4035C12.7093 30.7488 12.5396 30.3476 12.663 29.6378L15.6403 14.4086C15.7637 13.6834 16.0877 13.2976 16.7819 13.2976H25.1122C25.6521 13.2976 25.9607 13.6988 25.7293 14.8406C25.5133 15.9824 25.0659 16.3836 24.5106 16.3836H18.8645L18.124 20.2102H23.153V20.1639Z" fill="#F7F8FA"/>
<path d="M30.1874 25.1784C29.8635 26.8911 30.604 27.9558 32.1003 27.9558C33.5813 27.9558 34.7845 26.9066 35.1239 25.2247V25.1476C35.2473 24.5458 35.7873 24.0983 37.1294 24.0983C38.4715 24.0983 38.8726 24.5458 38.7337 25.1476L38.6874 25.3945C38.0241 28.897 34.8617 31.0263 31.4987 31.0263C28.1511 31.0263 25.8372 28.8507 26.5468 25.3173L27.8426 18.667C28.5368 15.149 31.6838 12.958 35.0314 12.958C38.4098 12.958 40.7083 15.0873 40.045 18.5899L39.9987 18.8368C39.8753 19.4385 39.3045 19.886 37.9624 19.886C36.6203 19.886 36.25 19.4385 36.3735 18.8368V18.7596C36.6974 17.0778 35.9261 16.0285 34.4451 16.0285C32.9642 16.0285 31.7609 17.0932 31.437 18.8059L30.1874 25.1784Z" fill="#F7F8FA"/>
<path d="M53.7901 13.282C54.33 13.282 54.6386 13.6832 54.4072 14.825C54.1912 15.9668 53.7438 16.3679 53.1885 16.3679H49.7484L47.1259 29.9153C47.0025 30.5171 46.4625 30.9646 45.1204 30.9646C43.7783 30.9646 43.3772 30.5171 43.5161 29.9153L46.1386 16.3679H42.6985C42.1585 16.3679 41.85 15.9668 42.0814 14.825C42.2974 13.6832 42.7447 13.282 43.3001 13.282H53.7901Z" fill="#F7F8FA"/>
<path d="M58.1094 25.1475C57.7854 26.8602 58.5567 27.9557 60.0377 27.9557C61.5186 27.9557 62.7373 26.8602 63.0613 25.1475L65.221 14.1151C65.3135 13.5134 65.8843 13.0659 67.2264 13.0659C68.5685 13.0659 68.9388 13.5134 68.8308 14.1151L66.6556 25.3326C65.9614 28.8506 62.8144 31.0417 59.436 31.0417C56.0576 31.0417 53.7591 28.8661 54.4533 25.3326L56.6438 14.1151C56.7364 13.5134 57.3072 13.0659 58.6493 13.0659C59.9914 13.0659 60.3616 13.5134 60.2536 14.1151L58.1094 25.1475Z" fill="#F7F8FA"/>
<path d="M77.3926 29.8999L79.5986 18.5435C79.9225 16.9388 79.3055 16.0593 78.0405 16.0593C76.7755 16.0593 75.8037 16.9234 75.4797 18.5435L73.2737 29.8999C73.1503 30.5016 72.6104 30.9491 71.2683 30.9491C69.9262 30.9491 69.5251 30.5016 69.6639 29.8999L71.8699 18.6207C72.5178 15.2261 75.2175 12.9888 78.4416 12.9888C80.1848 12.9888 81.5115 13.7603 82.144 14.8558C83.2084 13.7603 84.8436 12.9888 86.5868 12.9888C89.8109 12.9888 91.6158 15.2261 90.9833 18.6207L88.7773 29.8999C88.6539 30.5016 88.114 30.9491 86.7719 30.9491C85.4298 30.9491 85.0287 30.5016 85.1675 29.8999L87.3735 18.5435C87.6975 16.9388 87.0804 16.0593 85.8155 16.0593C84.5505 16.0593 83.5786 16.9234 83.2547 18.5435L81.0487 29.8999C80.9253 30.5016 80.3853 30.9491 79.0432 30.9491C77.6703 30.9337 77.2692 30.4862 77.3926 29.8999Z" fill="#F7F8FA"/>
</g>
<defs>
<filter id="filter0_dd_450_7121" x="74.8985" y="0.4" width="28.7" height="43.2154" filterUnits="userSpaceOnUse" color-interpolation-filters="sRGB">
<feFlood flood-opacity="0" result="BackgroundImageFix"/>
<feColorMatrix in="SourceAlpha" type="matrix" values="0 0 0 0 0 0 0 0 0 0 0 0 0 0 0 0 0 0 127 0" result="hardAlpha"/>
<feOffset dx="0.2" dy="0.2"/>
<feGaussianBlur stdDeviation="0.2"/>
<feComposite in2="hardAlpha" operator="out"/>
<feColorMatrix type="matrix" values="0 0 0 0 0.0235294 0 0 0 0 0.027451 0 0 0 0 0.0392157 0 0 0 1 0"/>
<feBlend mode="normal" in2="BackgroundImageFix" result="effect1_dropShadow_450_7121"/>
<feColorMatrix in="SourceAlpha" type="matrix" values="0 0 0 0 0 0 0 0 0 0 0 0 0 0 0 0 0 0 127 0" result="hardAlpha"/>
<feOffset dx="-0.2" dy="-0.2"/>
<feGaussianBlur stdDeviation="0.2"/>
<feComposite in2="hardAlpha" operator="out"/>
<feColorMatrix type="matrix" values="0 0 0 0 0.54902 0 0 0 0 0.576471 0 0 0 0 0.698039 0 0 0 1 0"/>
<feBlend mode="screen" in2="effect1_dropShadow_450_7121" result="effect2_dropShadow_450_7121"/>
<feBlend mode="normal" in="SourceGraphic" in2="effect2_dropShadow_450_7121" result="shape"/>
</filter>
<filter id="filter1_di_450_7121" x="0.7" y="12.658" width="91.3086" height="19.2837" filterUnits="userSpaceOnUse" color-interpolation-filters="sRGB">
<feFlood flood-opacity="0" result="BackgroundImageFix"/>
<feColorMatrix in="SourceAlpha" type="matrix" values="0 0 0 0 0 0 0 0 0 0 0 0 0 0 0 0 0 0 127 0" result="hardAlpha"/>
<feOffset dx="0.3" dy="0.3"/>
<feGaussianBlur stdDeviation="0.3"/>
<feColorMatrix type="matrix" values="0 0 0 0 0.360784 0 0 0 0 0.411765 0 0 0 0 0.529412 0 0 0 1 0"/>
<feBlend mode="screen" in2="BackgroundImageFix" result="effect1_dropShadow_450_7121"/>
<feBlend mode="normal" in="SourceGraphic" in2="effect1_dropShadow_450_7121" result="shape"/>
<feColorMatrix in="SourceAlpha" type="matrix" values="0 0 0 0 0 0 0 0 0 0 0 0 0 0 0 0 0 0 127 0" result="hardAlpha"/>
<feOffset dx="0.1" dy="0.1"/>
<feGaussianBlur stdDeviation="0.2"/>
<feComposite in2="hardAlpha" operator="arithmetic" k2="-1" k3="1"/>
<feColorMatrix type="matrix" values="0 0 0 0 0.239216 0 0 0 0 0.278431 0 0 0 0 0.356863 0 0 0 0.8 0"/>
<feBlend mode="multiply" in2="shape" result="effect2_innerShadow_450_7121"/>
</filter>
</defs>
</svg>
