<svg width="20" height="19" viewBox="0 0 20 19" fill="none" xmlns="http://www.w3.org/2000/svg">
<path d="M10 14.1875C8.7568 14.1875 7.56451 13.6936 6.68544 12.8146C5.80636 11.9355 5.3125 10.7432 5.3125 9.5C5.3125 8.2568 5.80636 7.06451 6.68544 6.18544C7.56451 5.30636 8.7568 4.8125 10 4.8125C11.2432 4.8125 12.4355 5.30636 13.3146 6.18544C14.1936 7.06451 14.6875 8.2568 14.6875 9.5C14.6875 10.7432 14.1936 11.9355 13.3146 12.8146C12.4355 13.6936 11.2432 14.1875 10 14.1875ZM10 0.125C10.2486 0.125 10.4871 0.223772 10.6629 0.399587C10.8387 0.575403 10.9375 0.81386 10.9375 1.0625V2.9375C10.9375 3.18614 10.8387 3.4246 10.6629 3.60041C10.4871 3.77623 10.2486 3.875 10 3.875C9.75136 3.875 9.5129 3.77623 9.33709 3.60041C9.16127 3.4246 9.0625 3.18614 9.0625 2.9375V1.0625C9.0625 0.81386 9.16127 0.575403 9.33709 0.399587C9.5129 0.223772 9.75136 0.125 10 0.125ZM10 15.125C10.2486 15.125 10.4871 15.2238 10.6629 15.3996C10.8387 15.5754 10.9375 15.8139 10.9375 16.0625V17.9375C10.9375 18.1861 10.8387 18.4246 10.6629 18.6004C10.4871 18.7762 10.2486 18.875 10 18.875C9.75136 18.875 9.5129 18.7762 9.33709 18.6004C9.16127 18.4246 9.0625 18.1861 9.0625 17.9375V16.0625C9.0625 15.8139 9.16127 15.5754 9.33709 15.3996C9.5129 15.2238 9.75136 15.125 10 15.125ZM1.5625 8.5625H3.4375C3.68614 8.5625 3.9246 8.66127 4.10041 8.83709C4.27623 9.0129 4.375 9.25136 4.375 9.5C4.375 9.74864 4.27623 9.9871 4.10041 10.1629C3.9246 10.3387 3.68614 10.4375 3.4375 10.4375H1.5625C1.31386 10.4375 1.0754 10.3387 0.899587 10.1629C0.723772 9.9871 0.625 9.74864 0.625 9.5C0.625 9.25136 0.723772 9.0129 0.899587 8.83709C1.0754 8.66127 1.31386 8.5625 1.5625 8.5625ZM16.5625 8.5625H18.4375C18.6861 8.5625 18.9246 8.66127 19.1004 8.83709C19.2762 9.0129 19.375 9.25136 19.375 9.5C19.375 9.74864 19.2762 9.9871 19.1004 10.1629C18.9246 10.3387 18.6861 10.4375 18.4375 10.4375H16.5625C16.3139 10.4375 16.0754 10.3387 15.8996 10.1629C15.7238 9.9871 15.625 9.74864 15.625 9.5C15.625 9.25136 15.7238 9.0129 15.8996 8.83709C16.0754 8.66127 16.3139 8.5625 16.5625 8.5625ZM16.6291 2.87094C16.8048 3.04674 16.9035 3.28516 16.9035 3.53375C16.9035 3.78234 16.8048 4.02076 16.6291 4.19656L15.3034 5.52219C15.217 5.61173 15.1135 5.68315 14.9991 5.73228C14.8848 5.78142 14.7617 5.80728 14.6373 5.80836C14.5128 5.80944 14.3893 5.78572 14.2741 5.73858C14.1589 5.69144 14.0542 5.62183 13.9662 5.53381C13.8782 5.44578 13.8086 5.34111 13.7614 5.22589C13.7143 5.11068 13.6906 4.98723 13.6916 4.86275C13.6927 4.73827 13.7186 4.61525 13.7677 4.50087C13.8169 4.38649 13.8883 4.28304 13.9778 4.19656L15.3034 2.87094C15.4792 2.69518 15.7177 2.59645 15.9663 2.59645C16.2148 2.59645 16.4533 2.69518 16.6291 2.87094ZM6.02219 13.4778C6.19794 13.6536 6.29667 13.892 6.29667 14.1406C6.29667 14.3892 6.19794 14.6276 6.02219 14.8034L4.69656 16.1291C4.61008 16.2186 4.50663 16.29 4.39225 16.3392C4.27788 16.3883 4.15486 16.4142 4.03038 16.4152C3.9059 16.4163 3.78245 16.3926 3.66723 16.3455C3.55202 16.2983 3.44734 16.2287 3.35932 16.1407C3.27129 16.0527 3.20168 15.948 3.15454 15.8328C3.1074 15.7176 3.08368 15.5941 3.08477 15.4696C3.08585 15.3451 3.11171 15.2221 3.16084 15.1077C3.20998 14.9934 3.2814 14.8899 3.37094 14.8034L4.69656 13.4778C4.87237 13.3021 5.11078 13.2033 5.35938 13.2033C5.60797 13.2033 5.84638 13.3021 6.02219 13.4778ZM4.69656 2.87094L6.02219 4.19656C6.19296 4.37338 6.28746 4.61019 6.28532 4.856C6.28318 5.10181 6.18459 5.33695 6.01077 5.51077C5.83695 5.68459 5.60181 5.78318 5.356 5.78532C5.11019 5.78746 4.87338 5.69296 4.69656 5.52219L3.37187 4.19656C3.2011 4.01975 3.10661 3.78293 3.10874 3.53712C3.11088 3.29131 3.20948 3.05618 3.3833 2.88236C3.55712 2.70854 3.79225 2.60994 4.03806 2.60781C4.28387 2.60567 4.51975 2.70016 4.69656 2.87094ZM15.3034 13.4778L16.6291 14.8034C16.7998 14.9803 16.8943 15.2171 16.8922 15.4629C16.8901 15.7087 16.7915 15.9438 16.6176 16.1176C16.4438 16.2915 16.2087 16.3901 15.9629 16.3922C15.7171 16.3943 15.4803 16.2998 15.3034 16.1291L13.9778 14.8034C13.8883 14.717 13.8169 14.6135 13.7677 14.4991C13.7186 14.3847 13.6927 14.2617 13.6916 14.1373C13.6906 14.0128 13.7143 13.8893 13.7614 13.7741C13.8086 13.6589 13.8782 13.5542 13.9662 13.4662C14.0542 13.3782 14.1589 13.3086 14.2741 13.2614C14.3893 13.2143 14.5128 13.1906 14.6373 13.1916C14.7617 13.1927 14.8848 13.2186 14.9991 13.2677C15.1135 13.3169 15.217 13.3883 15.3034 13.4778Z" fill="#F2F4F7"/>
</svg>
