<svg width="16" height="17" viewBox="0 0 16 17" fill="none" xmlns="http://www.w3.org/2000/svg">
<path fill-rule="evenodd" clip-rule="evenodd" d="M8.7851 0.5C7.93386 1.772 6.42146 4.948 8.34708 8.556C10.2314 12.108 14.0496 13.068 16 12.884C14.5206 15.06 11.9752 16.5 9.08262 16.5C8.19006 16.5 7.32229 16.356 6.51237 16.1C7.54543 15.556 8.26444 14.508 8.26444 13.292C8.26385 12.5965 8.02978 11.9201 7.5975 11.3645C7.16522 10.809 6.55815 10.4045 5.86774 10.212C5.10741 9.156 3.85121 8.492 2.47931 8.492C1.89253 8.492 1.33881 8.612 0.826415 8.828C0.826415 8.772 0.822282 8.716 0.81815 8.66C0.814018 8.604 0.809886 8.548 0.809886 8.492C0.809886 4.164 4.35534 0.652 8.7851 0.5ZM4.80992 11.6919H4.95868C5.86777 11.6919 6.61158 12.4119 6.61158 13.2919C6.61158 14.1719 5.86777 14.8919 4.95868 14.8919H2.47934C1.10744 14.8919 0 13.8199 0 12.4919C0 11.1639 1.10744 10.0919 2.47934 10.0919C3.55372 10.0919 4.46281 10.7639 4.80992 11.6919Z" fill="url(#paint0_linear_450_6866)"/>
<defs>
<linearGradient id="paint0_linear_450_6866" x1="0" y1="0.5" x2="8" y2="16.5" gradientUnits="userSpaceOnUse">
<stop offset="0.194585" stop-color="#CACEDC"/>
<stop offset="0.640234" stop-color="#EDEFF4"/>
<stop offset="1" stop-color="white"/>
</linearGradient>
</defs>
</svg>
