<svg width="26" height="26" viewBox="0 0 26 26" fill="none" xmlns="http://www.w3.org/2000/svg">
<path fill-rule="evenodd" clip-rule="evenodd" d="M13.001 0C9.47018 0 9.02818 0.0155999 7.64108 0.0779999C6.25788 0.1417 5.31278 0.3614 4.48598 0.6825C3.61821 1.0086 2.83206 1.52013 2.18238 2.1814C1.52114 2.83111 1.00961 3.61725 0.683477 4.485C0.362377 5.3118 0.142676 6.2569 0.0789765 7.6401C0.0152765 9.0272 0.000976562 9.4692 0.000976562 13C0.000976562 16.5308 0.0152765 16.9728 0.0789765 18.3599C0.142676 19.7431 0.362377 20.6882 0.683477 21.515C1.00965 22.3827 1.52117 23.1689 2.18238 23.8186C2.83211 24.4798 3.61825 24.9913 4.48598 25.3175C5.31278 25.6386 6.25788 25.8583 7.64108 25.922C9.02818 25.9844 9.47018 26 13.001 26C16.5318 26 16.9738 25.9844 18.3609 25.922C19.7441 25.8583 20.6892 25.6386 21.516 25.3175C22.3837 24.9914 23.1699 24.4798 23.8196 23.8186C24.4808 23.1689 24.9923 22.3827 25.3185 21.515C25.6396 20.6882 25.8593 19.7431 25.923 18.3599C25.9854 16.9728 26.001 16.5308 26.001 13C26.001 9.4692 25.9854 9.0272 25.923 7.6401C25.8593 6.2569 25.6396 5.3118 25.3185 4.485C24.9923 3.61725 24.4808 2.83111 23.8196 2.1814C23.1699 1.52013 22.3837 1.0086 21.516 0.6825C20.6892 0.3614 19.7441 0.1417 18.3609 0.0779999C16.9738 0.0155999 16.5318 0 13.001 0ZM13.001 2.3426C16.472 2.3426 16.8828 2.3556 18.253 2.418C19.5218 2.4765 20.2095 2.6871 20.6684 2.8652C21.2742 3.1018 21.7084 3.3839 22.1634 3.8376C22.6184 4.2926 22.8992 4.7268 23.1358 5.3326C23.3126 5.7915 23.5258 6.4792 23.583 7.7467C23.6454 9.1182 23.6584 9.5277 23.6584 13C23.6584 16.471 23.6454 16.8818 23.583 18.252C23.5245 19.5208 23.3126 20.2085 23.1358 20.6674C22.9274 21.2321 22.5951 21.7429 22.1634 22.1624C21.7084 22.6174 21.2742 22.8982 20.6684 23.1348C20.2095 23.3116 19.5218 23.5248 18.2543 23.582C16.8841 23.6444 16.4733 23.6574 13.001 23.6574C9.52998 23.6574 9.11788 23.6444 7.74898 23.582C6.48018 23.5235 5.79248 23.3116 5.33358 23.1348C4.76884 22.9265 4.25798 22.5942 3.83858 22.1624C3.40679 21.743 3.07451 21.2321 2.86618 20.6674C2.68808 20.2085 2.47618 19.5208 2.41898 18.2533C2.35658 16.8818 2.34358 16.4723 2.34358 13C2.34358 9.529 2.35658 9.1182 2.41898 7.748C2.47748 6.4792 2.68808 5.7915 2.86618 5.3326C3.10278 4.7268 3.38488 4.2926 3.83858 3.8376C4.29358 3.3826 4.72778 3.1018 5.33358 2.8652C5.79248 2.6871 6.48018 2.4752 7.74768 2.418C9.11918 2.3556 9.52868 2.3426 13.001 2.3426ZM13.001 17.3329C11.8518 17.3329 10.7497 16.8764 9.93715 16.0638C9.12458 15.2512 8.66808 14.1492 8.66808 13C8.66808 11.8508 9.12458 10.7488 9.93715 9.93618C10.7497 9.1236 11.8518 8.6671 13.001 8.6671C14.1501 8.6671 15.2522 9.1236 16.0648 9.93618C16.8774 10.7488 17.3339 11.8508 17.3339 13C17.3339 14.1492 16.8774 15.2512 16.0648 16.0638C15.2522 16.8764 14.1501 17.3329 13.001 17.3329ZM13.001 6.3245C12.1243 6.3245 11.2563 6.49717 10.4464 6.83264C9.63646 7.16812 8.90056 7.65983 8.28068 8.27971C7.66081 8.89959 7.16909 9.63549 6.83362 10.4454C6.49814 11.2553 6.32548 12.1234 6.32548 13C6.32548 13.8766 6.49814 14.7447 6.83362 15.5546C7.16909 16.3645 7.66081 17.1004 8.28068 17.7203C8.90056 18.3402 9.63646 18.8319 10.4464 19.1674C11.2563 19.5028 12.1243 19.6755 13.001 19.6755C14.7714 19.6755 16.4694 18.9722 17.7213 17.7203C18.9732 16.4684 19.6765 14.7705 19.6765 13C19.6765 11.2295 18.9732 9.53161 17.7213 8.27971C16.4694 7.02781 14.7714 6.3245 13.001 6.3245ZM21.5004 6.0606C21.5004 6.26546 21.46 6.46832 21.3816 6.65759C21.3032 6.84685 21.1883 7.01883 21.0435 7.16369C20.8986 7.30855 20.7266 7.42345 20.5374 7.50185C20.3481 7.58025 20.1452 7.6206 19.9404 7.6206C19.7355 7.6206 19.5327 7.58025 19.3434 7.50185C19.1541 7.42345 18.9821 7.30855 18.8373 7.16369C18.6924 7.01883 18.5775 6.84685 18.4991 6.65759C18.4207 6.46832 18.3804 6.26546 18.3804 6.0606C18.3804 5.64686 18.5447 5.25007 18.8373 4.95751C19.1298 4.66496 19.5266 4.5006 19.9404 4.5006C20.3541 4.5006 20.7509 4.66496 21.0435 4.95751C21.336 5.25007 21.5004 5.64686 21.5004 6.0606Z" fill="#F2F4F7"/>
</svg>
