<svg width="15" height="15" viewBox="0 0 15 15" fill="none" xmlns="http://www.w3.org/2000/svg">
<path d="M7.4925 0.000244141C3.3525 0.000244141 0 3.36024 0 7.50024C0 11.6402 3.3525 15.0002 7.4925 15.0002C11.64 15.0002 15 11.6402 15 7.50024C15 3.36024 11.64 0.000244141 7.4925 0.000244141ZM12.69 4.50024H10.4775C10.2428 3.57134 9.89518 2.67467 9.4425 1.83024C10.8106 2.30125 11.9634 3.24904 12.69 4.50024ZM7.5 1.53024C8.1225 2.43024 8.61 3.42774 8.9325 4.50024H6.0675C6.39 3.42774 6.8775 2.43024 7.5 1.53024ZM1.695 9.00024C1.575 8.52024 1.5 8.01774 1.5 7.50024C1.5 6.98274 1.575 6.48024 1.695 6.00024H4.23C4.17 6.49524 4.125 6.99024 4.125 7.50024C4.125 8.01024 4.17 8.50524 4.23 9.00024H1.695ZM2.31 10.5002H4.5225C4.7625 11.4377 5.1075 12.3377 5.5575 13.1702C4.18798 12.7018 3.03437 11.7534 2.31 10.5002ZM4.5225 4.50024H2.31C3.03437 3.24713 4.18798 2.29867 5.5575 1.83024C5.10482 2.67467 4.75723 3.57134 4.5225 4.50024ZM7.5 13.4702C6.8775 12.5702 6.39 11.5727 6.0675 10.5002H8.9325C8.61 11.5727 8.1225 12.5702 7.5 13.4702ZM9.255 9.00024H5.745C5.6775 8.50524 5.625 8.01024 5.625 7.50024C5.625 6.99024 5.6775 6.48774 5.745 6.00024H9.255C9.3225 6.48774 9.375 6.99024 9.375 7.50024C9.375 8.01024 9.3225 8.50524 9.255 9.00024ZM9.4425 13.1702C9.8925 12.3377 10.2375 11.4377 10.4775 10.5002H12.69C11.9634 11.7515 10.8106 12.6992 9.4425 13.1702ZM10.77 9.00024C10.83 8.50524 10.875 8.01024 10.875 7.50024C10.875 6.99024 10.83 6.49524 10.77 6.00024H13.305C13.425 6.48024 13.5 6.98274 13.5 7.50024C13.5 8.01774 13.425 8.52024 13.305 9.00024H10.77Z" fill="#F2F4F7"/>
</svg>
