<svg width="26" height="26" viewBox="0 0 26 26" fill="none" xmlns="http://www.w3.org/2000/svg">
<path fill-rule="evenodd" clip-rule="evenodd" d="M7 2.3H19C21.5957 2.3 23.7 4.40426 23.7 7V19C23.7 21.5957 21.5957 23.7 19 23.7H7C4.40426 23.7 2.3 21.5957 2.3 19V7C2.3 4.40426 4.40426 2.3 7 2.3ZM19 0H7C3.13401 0 0 3.13401 0 7V19C0 22.866 3.13401 26 7 26H19C22.866 26 26 22.866 26 19V7C26 3.13401 22.866 0 19 0ZM9.17811 10.2696V19.125H6.17706V10.2696H9.17811ZM9.3759 7.53005C9.3759 8.37981 8.72449 9.0598 7.67797 9.0598H7.67788H7.65838C6.65125 9.0598 6 8.37985 6 7.53005C6 6.66113 6.67129 6 7.69783 6C8.72453 6 9.3564 6.66112 9.3759 7.53005ZM13.8402 19.125H10.8392L10.8392 19.1248C10.8392 19.1248 10.8786 11.1003 10.8392 10.2694H13.8403V11.5232C14.2391 10.9199 14.953 10.0617 16.5449 10.0617C18.5194 10.0617 20 11.3273 20 14.0473V19.1249H16.9991V14.3875C16.9991 13.197 16.5647 12.385 15.4787 12.385C14.6497 12.385 14.1559 12.9327 13.939 13.4615C13.8597 13.6506 13.8402 13.915 13.8402 14.1797V19.125Z" fill="#F2F4F7"/>
</svg>
