<svg width="18" height="18" viewBox="0 0 18 18" fill="none" xmlns="http://www.w3.org/2000/svg">
<path d="M9 0C7.21997 0 5.47991 0.527841 3.99987 1.51677C2.51983 2.50571 1.36628 3.91131 0.685088 5.55585C0.00389957 7.20038 -0.17433 9.00998 0.172936 10.7558C0.520203 12.5016 1.37737 14.1053 2.63604 15.364C3.89472 16.6226 5.49836 17.4798 7.24419 17.8271C8.99002 18.1743 10.7996 17.9961 12.4442 17.3149C14.0887 16.6337 15.4943 15.4802 16.4832 14.0001C17.4722 12.5201 18 10.78 18 9C18 6.61305 17.0518 4.32387 15.364 2.63604C13.6761 0.948211 11.387 0 9 0V0ZM8.8035 2.7585H10.7415C10.7811 2.75855 10.8202 2.76776 10.8557 2.78541C10.8912 2.80307 10.9222 2.82869 10.9461 2.86027C10.9701 2.89185 10.9864 2.92855 10.9939 2.96749C11.0013 3.00643 10.9996 3.04656 10.989 3.08475L9.4665 8.27325L10.8953 7.83675L10.5893 8.8755L9.14625 9.2955L8.21025 12.456H13.2173C13.2569 12.4562 13.296 12.4656 13.3315 12.4834C13.3669 12.5013 13.3978 12.5271 13.4216 12.5588C13.4454 12.5906 13.4616 12.6274 13.4688 12.6664C13.476 12.7054 13.4741 12.7456 13.4633 12.7837L13.0268 14.2837C13.0059 14.3551 12.9624 14.4178 12.9029 14.4624C12.8434 14.507 12.7711 14.5312 12.6968 14.5312H5.04975L6.342 10.1647L4.9125 10.5997L5.2275 9.579L6.66 9.144L8.4765 3.009C8.49642 2.93726 8.53921 2.87398 8.59836 2.82877C8.65751 2.78356 8.7298 2.75889 8.80425 2.7585H8.8035Z" fill="#CACEDC"/>
</svg>
