<svg width="26" height="26" viewBox="0 0 26 26" fill="none" xmlns="http://www.w3.org/2000/svg">
<path d="M7.49347 22.3933C8.2605 22.0553 9.11853 21.9916 9.92196 22.2126C10.923 22.4856 11.9565 22.6234 13.0005 22.6208C18.9612 22.6208 23.4008 18.3476 23.4008 12.6105C23.4008 6.87335 18.9612 2.60009 13.0005 2.60009C7.03976 2.60009 2.60009 6.87335 2.60009 12.6105C2.60009 15.5616 3.76494 18.1643 5.80601 19.9895C6.17686 20.318 6.47675 20.7187 6.68733 21.1672C6.8979 21.6156 7.01473 22.1023 7.03065 22.5974L7.49347 22.3933ZM13.0005 0C20.3249 0 26.0009 5.36529 26.0009 12.6105C26.0009 19.8556 20.3249 25.2209 13.0005 25.2209C11.7292 25.2242 10.4633 25.0563 9.23684 24.7217C9.00647 24.6584 8.76133 24.6763 8.54261 24.7724L5.96332 25.9112C5.80748 25.9801 5.63711 26.0096 5.46718 25.9972C5.29726 25.9848 5.13298 25.9309 4.9888 25.8401C4.84462 25.7493 4.72494 25.6245 4.6403 25.4767C4.55565 25.3288 4.50863 25.1624 4.50336 24.9921L4.43186 22.678C4.42718 22.5373 4.39387 22.399 4.33396 22.2716C4.27406 22.1442 4.18882 22.0304 4.08345 21.937C1.55356 19.6762 0 16.4027 0 12.6105C0 5.36529 5.67731 0 13.0005 0ZM5.19369 16.2987L9.01193 10.2405C9.15559 10.0124 9.34498 9.81656 9.56814 9.66535C9.7913 9.51415 10.0434 9.41086 10.3085 9.36199C10.5736 9.31313 10.8459 9.31975 11.1083 9.38145C11.3707 9.44315 11.6175 9.55858 11.833 9.72045L14.8699 11.9955C15.0053 12.0977 15.1703 12.153 15.3399 12.153C15.5095 12.153 15.6745 12.0977 15.8099 11.9955L19.9115 8.88062C20.4588 8.46591 21.1739 9.12113 20.8073 9.70355L16.989 15.7618C16.8454 15.9899 16.656 16.1857 16.4328 16.3369C16.2097 16.4881 15.9576 16.5914 15.6925 16.6403C15.4274 16.6891 15.155 16.6825 14.8926 16.6208C14.6302 16.5591 14.3835 16.4437 14.1679 16.2818L11.131 14.0067C10.9956 13.9045 10.8306 13.8492 10.661 13.8492C10.4914 13.8492 10.3264 13.9045 10.1911 14.0067L6.08942 17.1203C5.5421 17.535 4.82707 16.8798 5.19369 16.2974V16.2987Z" fill="#F2F4F7"/>
</svg>
