<svg width="17" height="17" viewBox="0 0 17 17" fill="none" xmlns="http://www.w3.org/2000/svg">
<path d="M6.82788 13.0618C8.20581 13.0618 9.49243 12.6135 10.5383 11.8665L14.4729 15.801C14.6555 15.9836 14.8962 16.075 15.1453 16.075C15.6848 16.075 16.075 15.6599 16.075 15.1287C16.075 14.8796 15.9919 14.6472 15.8093 14.4646L11.8997 10.5466C12.7214 9.46753 13.2112 8.1311 13.2112 6.67847C13.2112 3.16724 10.3391 0.295166 6.82788 0.295166C3.30835 0.295166 0.44458 3.16724 0.44458 6.67847C0.44458 10.1897 3.30835 13.0618 6.82788 13.0618ZM6.82788 11.6838C4.08032 11.6838 1.82251 9.41772 1.82251 6.67847C1.82251 3.93921 4.08032 1.6731 6.82788 1.6731C9.56714 1.6731 11.8333 3.93921 11.8333 6.67847C11.8333 9.41772 9.56714 11.6838 6.82788 11.6838Z" fill="#B2B8CC"/>
</svg>
