<svg width="26" height="26" viewBox="0 0 26 26" fill="none" xmlns="http://www.w3.org/2000/svg">
<path fill-rule="evenodd" clip-rule="evenodd" d="M7 2.3H19C21.5957 2.3 23.7 4.40426 23.7 7V19C23.7 21.5957 21.5957 23.7 19 23.7H7C4.40426 23.7 2.3 21.5957 2.3 19V7C2.3 4.40426 4.40426 2.3 7 2.3ZM19 0H7C3.13401 0 0 3.13401 0 7V19C0 22.866 3.13401 26 7 26H19C22.866 26 26 22.866 26 19V7C26 3.13401 22.866 0 19 0ZM6.65371 11.7717L19.055 7.07581C19.6209 6.82443 20.1679 7.20974 19.9517 8.06072L17.8401 17.8329C17.6925 18.528 17.2665 18.6928 16.6734 18.3721L13.4566 16.0389L11.9101 17.5156C11.9043 17.5211 11.8986 17.5265 11.8929 17.5319C11.7204 17.6958 11.5774 17.8316 11.2659 17.8316L11.4855 14.6089L11.4841 14.6083H11.4855L17.454 9.31899C17.7156 9.09096 17.3973 8.97901 17.049 9.18712L9.68235 13.7511L6.49844 12.7758C5.81227 12.5691 5.80737 12.1055 6.65371 11.7717Z" fill="#F2F4F7"/>
</svg>
