<svg width="26" height="26" viewBox="0 0 26 26" fill="none" xmlns="http://www.w3.org/2000/svg">
<path fill-rule="evenodd" clip-rule="evenodd" d="M7.00095 2.3H19.0009C21.5967 2.3 23.7009 4.40426 23.7009 7V19C23.7009 21.5957 21.5967 23.7 19.0009 23.7H7.00095C4.40521 23.7 2.30095 21.5957 2.30095 19V7C2.30095 4.40426 4.40521 2.3 7.00095 2.3ZM19.0009 0H7.00095C3.13495 0 0.000946045 3.13401 0.000946045 7V19C0.000946045 22.866 3.13495 26 7.00095 26H19.0009C22.8669 26 26.0009 22.866 26.0009 19V7C26.0009 3.13401 22.8669 0 19.0009 0ZM18.3516 9.80196C18.933 9.73229 19.4861 9.57814 20.0009 9.35001L19.9997 9.35186C19.6143 9.92829 19.1293 10.4315 18.5674 10.8378C18.573 10.9611 18.576 11.0857 18.576 11.209C18.576 15.0046 15.6874 19.3811 10.4033 19.3811C8.84234 19.3828 7.31393 18.9348 6.00095 18.0906C6.22851 18.1174 6.45745 18.1307 6.68658 18.1307C7.98009 18.1326 9.23664 17.6993 10.2541 16.9006C9.65473 16.8896 9.07381 16.6915 8.59265 16.3339C8.11149 15.9764 7.75418 15.4773 7.57075 14.9066C8.00133 14.9886 8.44492 14.9718 8.86803 14.8573C8.21789 14.7259 7.63323 14.3736 7.21325 13.8603C6.79327 13.3469 6.56384 12.704 6.56388 12.0407V12.0038C6.96273 12.2255 7.40876 12.3487 7.86486 12.3632C7.47158 12.1006 7.14921 11.7449 6.92635 11.3278C6.70349 10.9107 6.58704 10.445 6.58731 9.97213C6.58731 9.44681 6.72912 8.95355 6.97575 8.52811C7.69705 9.41546 8.59687 10.1412 9.61682 10.6583C10.6368 11.1754 11.754 11.4723 12.8961 11.5296C12.7516 10.9135 12.8145 10.2669 13.075 9.69018C13.3356 9.11346 13.7793 8.63892 14.3372 8.34021C14.8951 8.0415 15.5361 7.93535 16.1605 8.03822C16.7849 8.1411 17.3579 8.44726 17.7905 8.90915C18.4338 8.78288 19.0507 8.54722 19.6144 8.21242C19.4004 8.878 18.9515 9.44298 18.3516 9.80196Z" fill="#F2F4F7"/>
</svg>
